<mxfile host="app.diagrams.net" modified="2023-10-12T03:36:11.037Z" agent="Mozilla/5.0 (Windows NT 10.0; Win64; x64) AppleWebKit/537.36 (KHTML, like Gecko) Chrome/117.0.0.0 Safari/537.36" etag="3nHVfGtiy0CMw0AjJ3lN" version="22.0.4" type="github">
  <diagram name="Page-1" id="wHn78Pd1td9nmhgm9uOF">
    <mxGraphModel dx="1185" dy="634" grid="1" gridSize="10" guides="1" tooltips="1" connect="1" arrows="1" fold="1" page="1" pageScale="1" pageWidth="850" pageHeight="1100" math="0" shadow="0">
      <root>
        <mxCell id="0" />
        <mxCell id="1" parent="0" />
        <mxCell id="LELydAPedzk0vhfljH3i-5" style="rounded=0;orthogonalLoop=1;jettySize=auto;html=1;entryX=0.25;entryY=1;entryDx=0;entryDy=0;" edge="1" parent="1" source="BX8NHJcZNSu14wdrrb0v-2" target="LELydAPedzk0vhfljH3i-4">
          <mxGeometry relative="1" as="geometry" />
        </mxCell>
        <mxCell id="BX8NHJcZNSu14wdrrb0v-2" value="&lt;div&gt;Waitlist&lt;/div&gt;" style="shape=module;align=left;spacingLeft=20;align=center;verticalAlign=top;whiteSpace=wrap;html=1;" parent="1" vertex="1">
          <mxGeometry x="830" y="230" width="150" height="50" as="geometry" />
        </mxCell>
        <mxCell id="BX8NHJcZNSu14wdrrb0v-24" style="rounded=0;orthogonalLoop=1;jettySize=auto;html=1;exitX=0;exitY=0;exitDx=10;exitDy=0;entryX=1;entryY=0.5;entryDx=0;entryDy=0;endArrow=open;endFill=0;exitPerimeter=0;dashed=1;" parent="1" source="BX8NHJcZNSu14wdrrb0v-12" target="BX8NHJcZNSu14wdrrb0v-20" edge="1">
          <mxGeometry relative="1" as="geometry" />
        </mxCell>
        <mxCell id="BX8NHJcZNSu14wdrrb0v-27" style="rounded=0;orthogonalLoop=1;jettySize=auto;html=1;exitX=0.25;exitY=0;exitDx=0;exitDy=0;entryX=1.006;entryY=0.617;entryDx=0;entryDy=0;entryPerimeter=0;endArrow=open;endFill=0;dashed=1;" parent="1" source="BX8NHJcZNSu14wdrrb0v-12" target="BX8NHJcZNSu14wdrrb0v-21" edge="1">
          <mxGeometry relative="1" as="geometry" />
        </mxCell>
        <mxCell id="LELydAPedzk0vhfljH3i-8" style="rounded=0;orthogonalLoop=1;jettySize=auto;html=1;entryX=1;entryY=0.5;entryDx=0;entryDy=0;exitX=0;exitY=1;exitDx=10;exitDy=0;exitPerimeter=0;dashed=1;endArrow=open;endFill=0;" edge="1" parent="1" source="BX8NHJcZNSu14wdrrb0v-12" target="LELydAPedzk0vhfljH3i-7">
          <mxGeometry relative="1" as="geometry" />
        </mxCell>
        <mxCell id="LELydAPedzk0vhfljH3i-11" style="rounded=0;orthogonalLoop=1;jettySize=auto;html=1;entryX=0.75;entryY=0;entryDx=0;entryDy=0;dashed=1;endArrow=open;endFill=0;" edge="1" parent="1" source="BX8NHJcZNSu14wdrrb0v-12" target="LELydAPedzk0vhfljH3i-9">
          <mxGeometry relative="1" as="geometry" />
        </mxCell>
        <mxCell id="BX8NHJcZNSu14wdrrb0v-12" value="&lt;div&gt;Triage&lt;/div&gt;" style="shape=module;align=left;spacingLeft=20;align=center;verticalAlign=top;whiteSpace=wrap;html=1;" parent="1" vertex="1">
          <mxGeometry x="450" y="220" width="150" height="50" as="geometry" />
        </mxCell>
        <mxCell id="BX8NHJcZNSu14wdrrb0v-13" value="Database" style="shape=cylinder3;whiteSpace=wrap;html=1;boundedLbl=1;backgroundOutline=1;size=15;" parent="1" vertex="1">
          <mxGeometry x="660" y="310" width="60" height="80" as="geometry" />
        </mxCell>
        <mxCell id="BX8NHJcZNSu14wdrrb0v-15" value="" style="endArrow=diamondThin;endSize=12;dashed=1;html=1;rounded=0;exitX=0.067;exitY=0.517;exitDx=0;exitDy=0;exitPerimeter=0;entryX=1;entryY=0.5;entryDx=0;entryDy=0;entryPerimeter=0;endFill=1;" parent="1" source="BX8NHJcZNSu14wdrrb0v-2" edge="1" target="BX8NHJcZNSu14wdrrb0v-13">
          <mxGeometry x="0.0263" width="160" relative="1" as="geometry">
            <mxPoint x="660" y="130" as="sourcePoint" />
            <mxPoint x="520" y="130" as="targetPoint" />
            <mxPoint as="offset" />
          </mxGeometry>
        </mxCell>
        <mxCell id="BX8NHJcZNSu14wdrrb0v-18" value="&amp;lt;Subsystem&amp;gt;&lt;div&gt;Enter Waitlist&lt;br&gt;&lt;/div&gt;" style="shape=module;align=left;spacingLeft=20;align=center;verticalAlign=top;whiteSpace=wrap;html=1;" parent="1" vertex="1">
          <mxGeometry x="610" y="60" width="150" height="50" as="geometry" />
        </mxCell>
        <mxCell id="BX8NHJcZNSu14wdrrb0v-20" value="&amp;lt;Subsystem&amp;gt;&lt;div&gt;Hotline&lt;/div&gt;" style="shape=module;align=left;spacingLeft=20;align=center;verticalAlign=top;whiteSpace=wrap;html=1;" parent="1" vertex="1">
          <mxGeometry x="170" y="190" width="150" height="50" as="geometry" />
        </mxCell>
        <mxCell id="BX8NHJcZNSu14wdrrb0v-21" value="&amp;lt;Subsystem&amp;gt;&lt;div&gt;GP&lt;br&gt;&lt;/div&gt;" style="shape=module;align=left;spacingLeft=20;align=center;verticalAlign=top;whiteSpace=wrap;html=1;" parent="1" vertex="1">
          <mxGeometry x="200" y="100" width="150" height="50" as="geometry" />
        </mxCell>
        <mxCell id="BX8NHJcZNSu14wdrrb0v-29" value="" style="ellipse;whiteSpace=wrap;html=1;align=center;aspect=fixed;fillColor=none;strokeColor=none;resizable=0;perimeter=centerPerimeter;rotatable=0;allowArrows=0;points=[];outlineConnect=1;" parent="1" vertex="1">
          <mxGeometry x="90" y="320" width="10" height="10" as="geometry" />
        </mxCell>
        <mxCell id="BX8NHJcZNSu14wdrrb0v-32" value="" style="ellipse;whiteSpace=wrap;html=1;align=center;aspect=fixed;fillColor=none;strokeColor=none;resizable=0;perimeter=centerPerimeter;rotatable=0;allowArrows=0;points=[];outlineConnect=1;" parent="1" vertex="1">
          <mxGeometry x="140" y="280" width="10" height="10" as="geometry" />
        </mxCell>
        <mxCell id="BX8NHJcZNSu14wdrrb0v-44" value="&lt;div&gt;Auth&lt;/div&gt;" style="shape=module;align=left;spacingLeft=20;align=center;verticalAlign=top;whiteSpace=wrap;html=1;" parent="1" vertex="1">
          <mxGeometry x="640" y="430" width="150" height="50" as="geometry" />
        </mxCell>
        <mxCell id="WmJ4JIkWG_iakZUvNSGp-2" value="" style="rounded=0;orthogonalLoop=1;jettySize=auto;html=1;endArrow=oval;endFill=0;sketch=0;sourcePerimeterSpacing=0;targetPerimeterSpacing=0;endSize=10;exitX=0;exitY=0;exitDx=0;exitDy=15;exitPerimeter=0;" parent="1" source="BX8NHJcZNSu14wdrrb0v-44" edge="1">
          <mxGeometry relative="1" as="geometry">
            <mxPoint x="640" y="310" as="sourcePoint" />
            <mxPoint x="550" y="390" as="targetPoint" />
          </mxGeometry>
        </mxCell>
        <mxCell id="WmJ4JIkWG_iakZUvNSGp-7" value="" style="rounded=0;orthogonalLoop=1;jettySize=auto;html=1;endArrow=halfCircle;endFill=0;endSize=6;strokeWidth=1;sketch=0;fontSize=12;curved=1;exitX=0.5;exitY=1;exitDx=0;exitDy=0;" parent="1" source="BX8NHJcZNSu14wdrrb0v-12" edge="1">
          <mxGeometry relative="1" as="geometry">
            <mxPoint x="615" y="315" as="sourcePoint" />
            <mxPoint x="550" y="390" as="targetPoint" />
          </mxGeometry>
        </mxCell>
        <mxCell id="WmJ4JIkWG_iakZUvNSGp-8" value="" style="ellipse;whiteSpace=wrap;html=1;align=center;aspect=fixed;fillColor=none;strokeColor=none;resizable=0;perimeter=centerPerimeter;rotatable=0;allowArrows=0;points=[];outlineConnect=1;" parent="1" vertex="1">
          <mxGeometry x="590" y="310" width="10" height="10" as="geometry" />
        </mxCell>
        <mxCell id="WmJ4JIkWG_iakZUvNSGp-9" value="" style="rounded=0;orthogonalLoop=1;jettySize=auto;html=1;endArrow=oval;endFill=0;sketch=0;sourcePerimeterSpacing=0;targetPerimeterSpacing=0;endSize=10;exitX=1;exitY=0.5;exitDx=0;exitDy=0;" parent="1" source="BX8NHJcZNSu14wdrrb0v-44" edge="1">
          <mxGeometry relative="1" as="geometry">
            <mxPoint x="680" y="385" as="sourcePoint" />
            <mxPoint x="850" y="390" as="targetPoint" />
          </mxGeometry>
        </mxCell>
        <mxCell id="WmJ4JIkWG_iakZUvNSGp-10" value="" style="rounded=0;orthogonalLoop=1;jettySize=auto;html=1;endArrow=halfCircle;endFill=0;endSize=6;strokeWidth=1;sketch=0;fontSize=12;curved=1;exitX=0.5;exitY=1;exitDx=0;exitDy=0;" parent="1" source="BX8NHJcZNSu14wdrrb0v-2" edge="1">
          <mxGeometry relative="1" as="geometry">
            <mxPoint x="577" y="391" as="sourcePoint" />
            <mxPoint x="850" y="390" as="targetPoint" />
          </mxGeometry>
        </mxCell>
        <mxCell id="WmJ4JIkWG_iakZUvNSGp-12" value="" style="rounded=0;orthogonalLoop=1;jettySize=auto;html=1;endArrow=halfCircle;endFill=0;endSize=6;strokeWidth=1;sketch=0;fontSize=12;curved=1;exitX=1;exitY=0.5;exitDx=0;exitDy=0;" parent="1" source="BX8NHJcZNSu14wdrrb0v-12" edge="1">
          <mxGeometry relative="1" as="geometry">
            <mxPoint x="715" y="165" as="sourcePoint" />
            <mxPoint x="680" y="245" as="targetPoint" />
          </mxGeometry>
        </mxCell>
        <mxCell id="WmJ4JIkWG_iakZUvNSGp-13" style="rounded=0;orthogonalLoop=1;jettySize=auto;html=1;entryX=0.5;entryY=1;entryDx=0;entryDy=0;" parent="1" source="BX8NHJcZNSu14wdrrb0v-2" target="BX8NHJcZNSu14wdrrb0v-18" edge="1">
          <mxGeometry relative="1" as="geometry" />
        </mxCell>
        <mxCell id="LELydAPedzk0vhfljH3i-2" style="rounded=0;orthogonalLoop=1;jettySize=auto;html=1;entryX=0.479;entryY=1.023;entryDx=0;entryDy=0;entryPerimeter=0;" edge="1" parent="1" source="BX8NHJcZNSu14wdrrb0v-12" target="BX8NHJcZNSu14wdrrb0v-18">
          <mxGeometry relative="1" as="geometry" />
        </mxCell>
        <mxCell id="LELydAPedzk0vhfljH3i-3" value="" style="rounded=0;orthogonalLoop=1;jettySize=auto;html=1;endArrow=oval;endFill=0;sketch=0;sourcePerimeterSpacing=0;targetPerimeterSpacing=0;endSize=10;exitX=0;exitY=0;exitDx=0;exitDy=15;exitPerimeter=0;" edge="1" parent="1" source="BX8NHJcZNSu14wdrrb0v-2">
          <mxGeometry relative="1" as="geometry">
            <mxPoint x="725" y="440" as="sourcePoint" />
            <mxPoint x="680" y="245" as="targetPoint" />
          </mxGeometry>
        </mxCell>
        <mxCell id="LELydAPedzk0vhfljH3i-4" value="&amp;lt;Subsystem&amp;gt;&lt;div&gt;View ED Queue&lt;/div&gt;" style="shape=module;align=left;spacingLeft=20;align=center;verticalAlign=top;whiteSpace=wrap;html=1;" vertex="1" parent="1">
          <mxGeometry x="870" y="80" width="150" height="50" as="geometry" />
        </mxCell>
        <mxCell id="LELydAPedzk0vhfljH3i-6" style="rounded=0;orthogonalLoop=1;jettySize=auto;html=1;dashed=1;endArrow=diamondThin;endFill=1;entryX=-0.026;entryY=0.55;entryDx=0;entryDy=0;entryPerimeter=0;endSize=12;" edge="1" parent="1" source="BX8NHJcZNSu14wdrrb0v-12" target="BX8NHJcZNSu14wdrrb0v-13">
          <mxGeometry relative="1" as="geometry">
            <mxPoint x="660" y="350" as="targetPoint" />
          </mxGeometry>
        </mxCell>
        <mxCell id="LELydAPedzk0vhfljH3i-7" value="&amp;lt;Subsystem&amp;gt;&lt;div&gt;Over the counter meds&lt;/div&gt;" style="shape=module;align=left;spacingLeft=20;align=center;verticalAlign=top;whiteSpace=wrap;html=1;" vertex="1" parent="1">
          <mxGeometry x="170" y="270" width="150" height="50" as="geometry" />
        </mxCell>
        <mxCell id="LELydAPedzk0vhfljH3i-9" value="&amp;lt;Subsystem&amp;gt;&lt;div&gt;You&#39;re Okay!&lt;/div&gt;" style="shape=module;align=left;spacingLeft=20;align=center;verticalAlign=top;whiteSpace=wrap;html=1;" vertex="1" parent="1">
          <mxGeometry x="210" y="370" width="150" height="50" as="geometry" />
        </mxCell>
        <mxCell id="LELydAPedzk0vhfljH3i-13" value="&amp;lt;Subsystem&amp;gt;&lt;div&gt;ER&lt;/div&gt;" style="shape=module;align=left;spacingLeft=20;align=center;verticalAlign=top;whiteSpace=wrap;html=1;" vertex="1" parent="1">
          <mxGeometry x="1050" y="240" width="150" height="50" as="geometry" />
        </mxCell>
        <mxCell id="LELydAPedzk0vhfljH3i-15" style="rounded=0;orthogonalLoop=1;jettySize=auto;html=1;entryX=0;entryY=0;entryDx=0;entryDy=15;entryPerimeter=0;" edge="1" parent="1" source="BX8NHJcZNSu14wdrrb0v-2" target="LELydAPedzk0vhfljH3i-13">
          <mxGeometry relative="1" as="geometry" />
        </mxCell>
      </root>
    </mxGraphModel>
  </diagram>
</mxfile>
